<mxfile host="app.diagrams.net" agent="Mozilla/5.0 (Windows NT 10.0; Win64; x64) AppleWebKit/537.36 (KHTML, like Gecko) Chrome/131.0.0.0 Safari/537.36" version="25.0.3">
  <diagram name="PÃ¡gina-1" id="gWm5VxszLwCP4zWtqMBF">
    <mxGraphModel dx="2049" dy="1114" grid="1" gridSize="9" guides="1" tooltips="1" connect="1" arrows="1" fold="1" page="1" pageScale="1" pageWidth="700" pageHeight="1000" math="0" shadow="0">
      <root>
        <mxCell id="0" />
        <mxCell id="1" parent="0" />
        <mxCell id="kEmHC3A9kpMNyN0Pkd79-1" value="Usuario" style="shape=module;align=left;spacingLeft=20;align=center;verticalAlign=top;whiteSpace=wrap;html=1;" vertex="1" parent="1">
          <mxGeometry x="30" y="70" width="100" height="50" as="geometry" />
        </mxCell>
        <mxCell id="kEmHC3A9kpMNyN0Pkd79-3" value="Estaciones de campo" style="shape=module;align=left;spacingLeft=20;align=center;verticalAlign=top;whiteSpace=wrap;html=1;" vertex="1" parent="1">
          <mxGeometry x="333" y="298" width="100" height="50" as="geometry" />
        </mxCell>
        <mxCell id="kEmHC3A9kpMNyN0Pkd79-7" value="" style="ellipse;whiteSpace=wrap;html=1;align=center;aspect=fixed;fillColor=none;strokeColor=none;resizable=0;perimeter=centerPerimeter;rotatable=0;allowArrows=0;points=[];outlineConnect=1;" vertex="1" parent="1">
          <mxGeometry x="475" y="230" width="10" height="10" as="geometry" />
        </mxCell>
        <mxCell id="kEmHC3A9kpMNyN0Pkd79-8" value="" style="rounded=0;orthogonalLoop=1;jettySize=auto;html=1;endArrow=halfCircle;endFill=0;endSize=6;strokeWidth=1;sketch=0;exitX=0.5;exitY=1;exitDx=0;exitDy=0;" edge="1" parent="1" source="kEmHC3A9kpMNyN0Pkd79-1">
          <mxGeometry relative="1" as="geometry">
            <mxPoint x="620" y="225" as="sourcePoint" />
            <mxPoint x="80" y="170" as="targetPoint" />
          </mxGeometry>
        </mxCell>
        <mxCell id="kEmHC3A9kpMNyN0Pkd79-9" value="" style="rounded=0;orthogonalLoop=1;jettySize=auto;html=1;endArrow=oval;endFill=0;sketch=0;sourcePerimeterSpacing=0;targetPerimeterSpacing=0;endSize=10;" edge="1" parent="1">
          <mxGeometry relative="1" as="geometry">
            <mxPoint x="144" y="324" as="sourcePoint" />
            <mxPoint x="79.70999999999998" y="170" as="targetPoint" />
            <Array as="points">
              <mxPoint x="81" y="324" />
            </Array>
          </mxGeometry>
        </mxCell>
        <mxCell id="kEmHC3A9kpMNyN0Pkd79-10" value="" style="ellipse;whiteSpace=wrap;html=1;align=center;aspect=fixed;fillColor=none;strokeColor=none;resizable=0;perimeter=centerPerimeter;rotatable=0;allowArrows=0;points=[];outlineConnect=1;" vertex="1" parent="1">
          <mxGeometry x="595" y="220" width="10" height="10" as="geometry" />
        </mxCell>
        <mxCell id="kEmHC3A9kpMNyN0Pkd79-12" value="Monitoreo y reporte" style="shape=module;align=left;spacingLeft=20;align=center;verticalAlign=top;whiteSpace=wrap;html=1;" vertex="1" parent="1">
          <mxGeometry x="130" y="297" width="100" height="50" as="geometry" />
        </mxCell>
        <mxCell id="kEmHC3A9kpMNyN0Pkd79-13" value="" style="rounded=0;orthogonalLoop=1;jettySize=auto;html=1;endArrow=halfCircle;endFill=0;endSize=6;strokeWidth=1;sketch=0;exitX=1;exitY=0.5;exitDx=0;exitDy=0;" edge="1" target="kEmHC3A9kpMNyN0Pkd79-15" parent="1" source="kEmHC3A9kpMNyN0Pkd79-1">
          <mxGeometry relative="1" as="geometry">
            <mxPoint x="150" y="100" as="sourcePoint" />
          </mxGeometry>
        </mxCell>
        <mxCell id="kEmHC3A9kpMNyN0Pkd79-14" value="" style="rounded=0;orthogonalLoop=1;jettySize=auto;html=1;endArrow=oval;endFill=0;sketch=0;sourcePerimeterSpacing=0;targetPerimeterSpacing=0;endSize=10;" edge="1" target="kEmHC3A9kpMNyN0Pkd79-15" parent="1">
          <mxGeometry relative="1" as="geometry">
            <mxPoint x="240" y="95" as="sourcePoint" />
          </mxGeometry>
        </mxCell>
        <mxCell id="kEmHC3A9kpMNyN0Pkd79-15" value="" style="ellipse;whiteSpace=wrap;html=1;align=center;aspect=fixed;fillColor=none;strokeColor=none;resizable=0;perimeter=centerPerimeter;rotatable=0;allowArrows=0;points=[];outlineConnect=1;" vertex="1" parent="1">
          <mxGeometry x="170" y="90" width="10" height="10" as="geometry" />
        </mxCell>
        <mxCell id="kEmHC3A9kpMNyN0Pkd79-17" value="Usuario" style="shape=table;startSize=30;container=1;collapsible=1;childLayout=tableLayout;fixedRows=1;rowLines=0;fontStyle=1;align=center;resizeLast=1;html=1;" vertex="1" parent="1">
          <mxGeometry x="240" y="50" width="142" height="170" as="geometry">
            <mxRectangle x="290" y="50" width="70" height="30" as="alternateBounds" />
          </mxGeometry>
        </mxCell>
        <mxCell id="kEmHC3A9kpMNyN0Pkd79-18" value="" style="shape=tableRow;horizontal=0;startSize=0;swimlaneHead=0;swimlaneBody=0;fillColor=none;collapsible=0;dropTarget=0;points=[[0,0.5],[1,0.5]];portConstraint=eastwest;top=0;left=0;right=0;bottom=1;" vertex="1" parent="kEmHC3A9kpMNyN0Pkd79-17">
          <mxGeometry y="30" width="142" height="30" as="geometry" />
        </mxCell>
        <mxCell id="kEmHC3A9kpMNyN0Pkd79-19" value="PK" style="shape=partialRectangle;connectable=0;fillColor=none;top=0;left=0;bottom=0;right=0;fontStyle=1;overflow=hidden;whiteSpace=wrap;html=1;" vertex="1" parent="kEmHC3A9kpMNyN0Pkd79-18">
          <mxGeometry width="30" height="30" as="geometry">
            <mxRectangle width="30" height="30" as="alternateBounds" />
          </mxGeometry>
        </mxCell>
        <mxCell id="kEmHC3A9kpMNyN0Pkd79-20" value="Datos del usuario" style="shape=partialRectangle;connectable=0;fillColor=none;top=0;left=0;bottom=0;right=0;align=left;spacingLeft=6;fontStyle=5;overflow=hidden;whiteSpace=wrap;html=1;" vertex="1" parent="kEmHC3A9kpMNyN0Pkd79-18">
          <mxGeometry x="30" width="112" height="30" as="geometry">
            <mxRectangle width="112" height="30" as="alternateBounds" />
          </mxGeometry>
        </mxCell>
        <mxCell id="kEmHC3A9kpMNyN0Pkd79-21" value="" style="shape=tableRow;horizontal=0;startSize=0;swimlaneHead=0;swimlaneBody=0;fillColor=none;collapsible=0;dropTarget=0;points=[[0,0.5],[1,0.5]];portConstraint=eastwest;top=0;left=0;right=0;bottom=0;" vertex="1" parent="kEmHC3A9kpMNyN0Pkd79-17">
          <mxGeometry y="60" width="142" height="30" as="geometry" />
        </mxCell>
        <mxCell id="kEmHC3A9kpMNyN0Pkd79-22" value="" style="shape=partialRectangle;connectable=0;fillColor=none;top=0;left=0;bottom=0;right=0;editable=1;overflow=hidden;whiteSpace=wrap;html=1;" vertex="1" parent="kEmHC3A9kpMNyN0Pkd79-21">
          <mxGeometry width="30" height="30" as="geometry">
            <mxRectangle width="30" height="30" as="alternateBounds" />
          </mxGeometry>
        </mxCell>
        <mxCell id="kEmHC3A9kpMNyN0Pkd79-23" value="ID del usuario" style="shape=partialRectangle;connectable=0;fillColor=none;top=0;left=0;bottom=0;right=0;align=left;spacingLeft=6;overflow=hidden;whiteSpace=wrap;html=1;" vertex="1" parent="kEmHC3A9kpMNyN0Pkd79-21">
          <mxGeometry x="30" width="112" height="30" as="geometry">
            <mxRectangle width="112" height="30" as="alternateBounds" />
          </mxGeometry>
        </mxCell>
        <mxCell id="kEmHC3A9kpMNyN0Pkd79-24" value="" style="shape=tableRow;horizontal=0;startSize=0;swimlaneHead=0;swimlaneBody=0;fillColor=none;collapsible=0;dropTarget=0;points=[[0,0.5],[1,0.5]];portConstraint=eastwest;top=0;left=0;right=0;bottom=0;" vertex="1" parent="kEmHC3A9kpMNyN0Pkd79-17">
          <mxGeometry y="90" width="142" height="20" as="geometry" />
        </mxCell>
        <mxCell id="kEmHC3A9kpMNyN0Pkd79-25" value="" style="shape=partialRectangle;connectable=0;fillColor=none;top=0;left=0;bottom=0;right=0;editable=1;overflow=hidden;whiteSpace=wrap;html=1;" vertex="1" parent="kEmHC3A9kpMNyN0Pkd79-24">
          <mxGeometry width="30" height="20" as="geometry">
            <mxRectangle width="30" height="20" as="alternateBounds" />
          </mxGeometry>
        </mxCell>
        <mxCell id="kEmHC3A9kpMNyN0Pkd79-26" value="Nombre&amp;nbsp;" style="shape=partialRectangle;connectable=0;fillColor=none;top=0;left=0;bottom=0;right=0;align=left;spacingLeft=6;overflow=hidden;whiteSpace=wrap;html=1;" vertex="1" parent="kEmHC3A9kpMNyN0Pkd79-24">
          <mxGeometry x="30" width="112" height="20" as="geometry">
            <mxRectangle width="112" height="20" as="alternateBounds" />
          </mxGeometry>
        </mxCell>
        <mxCell id="kEmHC3A9kpMNyN0Pkd79-27" value="" style="shape=tableRow;horizontal=0;startSize=0;swimlaneHead=0;swimlaneBody=0;fillColor=none;collapsible=0;dropTarget=0;points=[[0,0.5],[1,0.5]];portConstraint=eastwest;top=0;left=0;right=0;bottom=0;" vertex="1" parent="kEmHC3A9kpMNyN0Pkd79-17">
          <mxGeometry y="110" width="142" height="30" as="geometry" />
        </mxCell>
        <mxCell id="kEmHC3A9kpMNyN0Pkd79-28" value="" style="shape=partialRectangle;connectable=0;fillColor=none;top=0;left=0;bottom=0;right=0;editable=1;overflow=hidden;whiteSpace=wrap;html=1;" vertex="1" parent="kEmHC3A9kpMNyN0Pkd79-27">
          <mxGeometry width="30" height="30" as="geometry">
            <mxRectangle width="30" height="30" as="alternateBounds" />
          </mxGeometry>
        </mxCell>
        <mxCell id="kEmHC3A9kpMNyN0Pkd79-29" value="Edad" style="shape=partialRectangle;connectable=0;fillColor=none;top=0;left=0;bottom=0;right=0;align=left;spacingLeft=6;overflow=hidden;whiteSpace=wrap;html=1;" vertex="1" parent="kEmHC3A9kpMNyN0Pkd79-27">
          <mxGeometry x="30" width="112" height="30" as="geometry">
            <mxRectangle width="112" height="30" as="alternateBounds" />
          </mxGeometry>
        </mxCell>
        <mxCell id="kEmHC3A9kpMNyN0Pkd79-48" style="shape=tableRow;horizontal=0;startSize=0;swimlaneHead=0;swimlaneBody=0;fillColor=none;collapsible=0;dropTarget=0;points=[[0,0.5],[1,0.5]];portConstraint=eastwest;top=0;left=0;right=0;bottom=0;" vertex="1" parent="kEmHC3A9kpMNyN0Pkd79-17">
          <mxGeometry y="140" width="142" height="30" as="geometry" />
        </mxCell>
        <mxCell id="kEmHC3A9kpMNyN0Pkd79-49" value="FK" style="shape=partialRectangle;connectable=0;fillColor=none;top=0;left=0;bottom=0;right=0;editable=1;overflow=hidden;whiteSpace=wrap;html=1;" vertex="1" parent="kEmHC3A9kpMNyN0Pkd79-48">
          <mxGeometry width="30" height="30" as="geometry">
            <mxRectangle width="30" height="30" as="alternateBounds" />
          </mxGeometry>
        </mxCell>
        <mxCell id="kEmHC3A9kpMNyN0Pkd79-50" value="Direccion" style="shape=partialRectangle;connectable=0;fillColor=none;top=0;left=0;bottom=0;right=0;align=left;spacingLeft=6;overflow=hidden;whiteSpace=wrap;html=1;" vertex="1" parent="kEmHC3A9kpMNyN0Pkd79-48">
          <mxGeometry x="30" width="112" height="30" as="geometry">
            <mxRectangle width="112" height="30" as="alternateBounds" />
          </mxGeometry>
        </mxCell>
        <mxCell id="kEmHC3A9kpMNyN0Pkd79-51" value="" style="endArrow=classic;html=1;rounded=0;exitX=0;exitY=0.5;exitDx=0;exitDy=0;" edge="1" parent="1" source="kEmHC3A9kpMNyN0Pkd79-48">
          <mxGeometry width="50" height="50" relative="1" as="geometry">
            <mxPoint x="261" y="320" as="sourcePoint" />
            <mxPoint x="468" y="90" as="targetPoint" />
            <Array as="points">
              <mxPoint x="216" y="205" />
              <mxPoint x="216" y="252" />
              <mxPoint x="432" y="252" />
              <mxPoint x="432" y="90" />
            </Array>
          </mxGeometry>
        </mxCell>
        <mxCell id="kEmHC3A9kpMNyN0Pkd79-52" value="Barrio" style="shape=table;startSize=30;container=1;collapsible=1;childLayout=tableLayout;fixedRows=1;rowLines=0;fontStyle=1;align=center;resizeLast=1;html=1;" vertex="1" parent="1">
          <mxGeometry x="468" y="45" width="153" height="147" as="geometry">
            <mxRectangle x="290" y="50" width="70" height="30" as="alternateBounds" />
          </mxGeometry>
        </mxCell>
        <mxCell id="kEmHC3A9kpMNyN0Pkd79-53" value="" style="shape=tableRow;horizontal=0;startSize=0;swimlaneHead=0;swimlaneBody=0;fillColor=none;collapsible=0;dropTarget=0;points=[[0,0.5],[1,0.5]];portConstraint=eastwest;top=0;left=0;right=0;bottom=1;" vertex="1" parent="kEmHC3A9kpMNyN0Pkd79-52">
          <mxGeometry y="30" width="153" height="30" as="geometry" />
        </mxCell>
        <mxCell id="kEmHC3A9kpMNyN0Pkd79-54" value="PK" style="shape=partialRectangle;connectable=0;fillColor=none;top=0;left=0;bottom=0;right=0;fontStyle=1;overflow=hidden;whiteSpace=wrap;html=1;" vertex="1" parent="kEmHC3A9kpMNyN0Pkd79-53">
          <mxGeometry width="30" height="30" as="geometry">
            <mxRectangle width="30" height="30" as="alternateBounds" />
          </mxGeometry>
        </mxCell>
        <mxCell id="kEmHC3A9kpMNyN0Pkd79-55" value="Direccion" style="shape=partialRectangle;connectable=0;fillColor=none;top=0;left=0;bottom=0;right=0;align=left;spacingLeft=6;fontStyle=5;overflow=hidden;whiteSpace=wrap;html=1;" vertex="1" parent="kEmHC3A9kpMNyN0Pkd79-53">
          <mxGeometry x="30" width="123" height="30" as="geometry">
            <mxRectangle width="123" height="30" as="alternateBounds" />
          </mxGeometry>
        </mxCell>
        <mxCell id="kEmHC3A9kpMNyN0Pkd79-56" value="" style="shape=tableRow;horizontal=0;startSize=0;swimlaneHead=0;swimlaneBody=0;fillColor=none;collapsible=0;dropTarget=0;points=[[0,0.5],[1,0.5]];portConstraint=eastwest;top=0;left=0;right=0;bottom=0;" vertex="1" parent="kEmHC3A9kpMNyN0Pkd79-52">
          <mxGeometry y="60" width="153" height="30" as="geometry" />
        </mxCell>
        <mxCell id="kEmHC3A9kpMNyN0Pkd79-57" value="" style="shape=partialRectangle;connectable=0;fillColor=none;top=0;left=0;bottom=0;right=0;editable=1;overflow=hidden;whiteSpace=wrap;html=1;" vertex="1" parent="kEmHC3A9kpMNyN0Pkd79-56">
          <mxGeometry width="30" height="30" as="geometry">
            <mxRectangle width="30" height="30" as="alternateBounds" />
          </mxGeometry>
        </mxCell>
        <mxCell id="kEmHC3A9kpMNyN0Pkd79-58" value="Nombre del barrio" style="shape=partialRectangle;connectable=0;fillColor=none;top=0;left=0;bottom=0;right=0;align=left;spacingLeft=6;overflow=hidden;whiteSpace=wrap;html=1;" vertex="1" parent="kEmHC3A9kpMNyN0Pkd79-56">
          <mxGeometry x="30" width="123" height="30" as="geometry">
            <mxRectangle width="123" height="30" as="alternateBounds" />
          </mxGeometry>
        </mxCell>
        <mxCell id="kEmHC3A9kpMNyN0Pkd79-59" value="" style="shape=tableRow;horizontal=0;startSize=0;swimlaneHead=0;swimlaneBody=0;fillColor=none;collapsible=0;dropTarget=0;points=[[0,0.5],[1,0.5]];portConstraint=eastwest;top=0;left=0;right=0;bottom=0;" vertex="1" parent="kEmHC3A9kpMNyN0Pkd79-52">
          <mxGeometry y="90" width="153" height="27" as="geometry" />
        </mxCell>
        <mxCell id="kEmHC3A9kpMNyN0Pkd79-60" value="" style="shape=partialRectangle;connectable=0;fillColor=none;top=0;left=0;bottom=0;right=0;editable=1;overflow=hidden;whiteSpace=wrap;html=1;" vertex="1" parent="kEmHC3A9kpMNyN0Pkd79-59">
          <mxGeometry width="30" height="27" as="geometry">
            <mxRectangle width="30" height="27" as="alternateBounds" />
          </mxGeometry>
        </mxCell>
        <mxCell id="kEmHC3A9kpMNyN0Pkd79-61" value="Numero de vivienda" style="shape=partialRectangle;connectable=0;fillColor=none;top=0;left=0;bottom=0;right=0;align=left;spacingLeft=6;overflow=hidden;whiteSpace=wrap;html=1;" vertex="1" parent="kEmHC3A9kpMNyN0Pkd79-59">
          <mxGeometry x="30" width="123" height="27" as="geometry">
            <mxRectangle width="123" height="27" as="alternateBounds" />
          </mxGeometry>
        </mxCell>
        <mxCell id="kEmHC3A9kpMNyN0Pkd79-68" style="shape=tableRow;horizontal=0;startSize=0;swimlaneHead=0;swimlaneBody=0;fillColor=none;collapsible=0;dropTarget=0;points=[[0,0.5],[1,0.5]];portConstraint=eastwest;top=0;left=0;right=0;bottom=0;" vertex="1" parent="kEmHC3A9kpMNyN0Pkd79-52">
          <mxGeometry y="117" width="153" height="30" as="geometry" />
        </mxCell>
        <mxCell id="kEmHC3A9kpMNyN0Pkd79-69" value="FK" style="shape=partialRectangle;connectable=0;fillColor=none;top=0;left=0;bottom=0;right=0;editable=1;overflow=hidden;whiteSpace=wrap;html=1;" vertex="1" parent="kEmHC3A9kpMNyN0Pkd79-68">
          <mxGeometry width="30" height="30" as="geometry">
            <mxRectangle width="30" height="30" as="alternateBounds" />
          </mxGeometry>
        </mxCell>
        <mxCell id="kEmHC3A9kpMNyN0Pkd79-70" value="Municipio" style="shape=partialRectangle;connectable=0;fillColor=none;top=0;left=0;bottom=0;right=0;align=left;spacingLeft=6;overflow=hidden;whiteSpace=wrap;html=1;" vertex="1" parent="kEmHC3A9kpMNyN0Pkd79-68">
          <mxGeometry x="30" width="123" height="30" as="geometry">
            <mxRectangle width="123" height="30" as="alternateBounds" />
          </mxGeometry>
        </mxCell>
        <mxCell id="kEmHC3A9kpMNyN0Pkd79-88" value="" style="endArrow=classic;html=1;rounded=0;exitX=-0.001;exitY=0.648;exitDx=0;exitDy=0;exitPerimeter=0;entryX=0;entryY=0.5;entryDx=0;entryDy=0;" edge="1" parent="1" source="kEmHC3A9kpMNyN0Pkd79-68" target="kEmHC3A9kpMNyN0Pkd79-90">
          <mxGeometry width="50" height="50" relative="1" as="geometry">
            <mxPoint x="450" y="239" as="sourcePoint" />
            <mxPoint x="684" y="90" as="targetPoint" />
            <Array as="points">
              <mxPoint x="450" y="181" />
              <mxPoint x="450" y="252" />
              <mxPoint x="648" y="252" />
              <mxPoint x="648" y="90" />
            </Array>
          </mxGeometry>
        </mxCell>
        <mxCell id="kEmHC3A9kpMNyN0Pkd79-89" value="Municipio" style="shape=table;startSize=30;container=1;collapsible=1;childLayout=tableLayout;fixedRows=1;rowLines=0;fontStyle=1;align=center;resizeLast=1;html=1;" vertex="1" parent="1">
          <mxGeometry x="711" y="45" width="142" height="120" as="geometry">
            <mxRectangle x="290" y="50" width="70" height="30" as="alternateBounds" />
          </mxGeometry>
        </mxCell>
        <mxCell id="kEmHC3A9kpMNyN0Pkd79-90" value="" style="shape=tableRow;horizontal=0;startSize=0;swimlaneHead=0;swimlaneBody=0;fillColor=none;collapsible=0;dropTarget=0;points=[[0,0.5],[1,0.5]];portConstraint=eastwest;top=0;left=0;right=0;bottom=1;" vertex="1" parent="kEmHC3A9kpMNyN0Pkd79-89">
          <mxGeometry y="30" width="142" height="30" as="geometry" />
        </mxCell>
        <mxCell id="kEmHC3A9kpMNyN0Pkd79-91" value="PK" style="shape=partialRectangle;connectable=0;fillColor=none;top=0;left=0;bottom=0;right=0;fontStyle=1;overflow=hidden;whiteSpace=wrap;html=1;" vertex="1" parent="kEmHC3A9kpMNyN0Pkd79-90">
          <mxGeometry width="30" height="30" as="geometry">
            <mxRectangle width="30" height="30" as="alternateBounds" />
          </mxGeometry>
        </mxCell>
        <mxCell id="kEmHC3A9kpMNyN0Pkd79-92" value="Municipio" style="shape=partialRectangle;connectable=0;fillColor=none;top=0;left=0;bottom=0;right=0;align=left;spacingLeft=6;fontStyle=5;overflow=hidden;whiteSpace=wrap;html=1;" vertex="1" parent="kEmHC3A9kpMNyN0Pkd79-90">
          <mxGeometry x="30" width="112" height="30" as="geometry">
            <mxRectangle width="112" height="30" as="alternateBounds" />
          </mxGeometry>
        </mxCell>
        <mxCell id="kEmHC3A9kpMNyN0Pkd79-93" value="" style="shape=tableRow;horizontal=0;startSize=0;swimlaneHead=0;swimlaneBody=0;fillColor=none;collapsible=0;dropTarget=0;points=[[0,0.5],[1,0.5]];portConstraint=eastwest;top=0;left=0;right=0;bottom=0;" vertex="1" parent="kEmHC3A9kpMNyN0Pkd79-89">
          <mxGeometry y="60" width="142" height="30" as="geometry" />
        </mxCell>
        <mxCell id="kEmHC3A9kpMNyN0Pkd79-94" value="" style="shape=partialRectangle;connectable=0;fillColor=none;top=0;left=0;bottom=0;right=0;editable=1;overflow=hidden;whiteSpace=wrap;html=1;" vertex="1" parent="kEmHC3A9kpMNyN0Pkd79-93">
          <mxGeometry width="30" height="30" as="geometry">
            <mxRectangle width="30" height="30" as="alternateBounds" />
          </mxGeometry>
        </mxCell>
        <mxCell id="kEmHC3A9kpMNyN0Pkd79-95" value="Nombre Municipio" style="shape=partialRectangle;connectable=0;fillColor=none;top=0;left=0;bottom=0;right=0;align=left;spacingLeft=6;overflow=hidden;whiteSpace=wrap;html=1;" vertex="1" parent="kEmHC3A9kpMNyN0Pkd79-93">
          <mxGeometry x="30" width="112" height="30" as="geometry">
            <mxRectangle width="112" height="30" as="alternateBounds" />
          </mxGeometry>
        </mxCell>
        <mxCell id="kEmHC3A9kpMNyN0Pkd79-118" style="shape=tableRow;horizontal=0;startSize=0;swimlaneHead=0;swimlaneBody=0;fillColor=none;collapsible=0;dropTarget=0;points=[[0,0.5],[1,0.5]];portConstraint=eastwest;top=0;left=0;right=0;bottom=0;" vertex="1" parent="kEmHC3A9kpMNyN0Pkd79-89">
          <mxGeometry y="90" width="142" height="30" as="geometry" />
        </mxCell>
        <mxCell id="kEmHC3A9kpMNyN0Pkd79-119" value="FK" style="shape=partialRectangle;connectable=0;fillColor=none;top=0;left=0;bottom=0;right=0;editable=1;overflow=hidden;whiteSpace=wrap;html=1;" vertex="1" parent="kEmHC3A9kpMNyN0Pkd79-118">
          <mxGeometry width="30" height="30" as="geometry">
            <mxRectangle width="30" height="30" as="alternateBounds" />
          </mxGeometry>
        </mxCell>
        <mxCell id="kEmHC3A9kpMNyN0Pkd79-120" value="Departamento" style="shape=partialRectangle;connectable=0;fillColor=none;top=0;left=0;bottom=0;right=0;align=left;spacingLeft=6;overflow=hidden;whiteSpace=wrap;html=1;" vertex="1" parent="kEmHC3A9kpMNyN0Pkd79-118">
          <mxGeometry x="30" width="112" height="30" as="geometry">
            <mxRectangle width="112" height="30" as="alternateBounds" />
          </mxGeometry>
        </mxCell>
        <mxCell id="kEmHC3A9kpMNyN0Pkd79-121" value="Departamento" style="shape=table;startSize=30;container=1;collapsible=1;childLayout=tableLayout;fixedRows=1;rowLines=0;fontStyle=1;align=center;resizeLast=1;html=1;" vertex="1" parent="1">
          <mxGeometry x="963" y="45" width="142" height="90" as="geometry">
            <mxRectangle x="290" y="50" width="70" height="30" as="alternateBounds" />
          </mxGeometry>
        </mxCell>
        <mxCell id="kEmHC3A9kpMNyN0Pkd79-122" value="" style="shape=tableRow;horizontal=0;startSize=0;swimlaneHead=0;swimlaneBody=0;fillColor=none;collapsible=0;dropTarget=0;points=[[0,0.5],[1,0.5]];portConstraint=eastwest;top=0;left=0;right=0;bottom=1;" vertex="1" parent="kEmHC3A9kpMNyN0Pkd79-121">
          <mxGeometry y="30" width="142" height="30" as="geometry" />
        </mxCell>
        <mxCell id="kEmHC3A9kpMNyN0Pkd79-123" value="PK" style="shape=partialRectangle;connectable=0;fillColor=none;top=0;left=0;bottom=0;right=0;fontStyle=1;overflow=hidden;whiteSpace=wrap;html=1;" vertex="1" parent="kEmHC3A9kpMNyN0Pkd79-122">
          <mxGeometry width="30" height="30" as="geometry">
            <mxRectangle width="30" height="30" as="alternateBounds" />
          </mxGeometry>
        </mxCell>
        <mxCell id="kEmHC3A9kpMNyN0Pkd79-124" value="Departamento" style="shape=partialRectangle;connectable=0;fillColor=none;top=0;left=0;bottom=0;right=0;align=left;spacingLeft=6;fontStyle=5;overflow=hidden;whiteSpace=wrap;html=1;" vertex="1" parent="kEmHC3A9kpMNyN0Pkd79-122">
          <mxGeometry x="30" width="112" height="30" as="geometry">
            <mxRectangle width="112" height="30" as="alternateBounds" />
          </mxGeometry>
        </mxCell>
        <mxCell id="kEmHC3A9kpMNyN0Pkd79-125" value="" style="shape=tableRow;horizontal=0;startSize=0;swimlaneHead=0;swimlaneBody=0;fillColor=none;collapsible=0;dropTarget=0;points=[[0,0.5],[1,0.5]];portConstraint=eastwest;top=0;left=0;right=0;bottom=0;" vertex="1" parent="kEmHC3A9kpMNyN0Pkd79-121">
          <mxGeometry y="60" width="142" height="30" as="geometry" />
        </mxCell>
        <mxCell id="kEmHC3A9kpMNyN0Pkd79-126" value="" style="shape=partialRectangle;connectable=0;fillColor=none;top=0;left=0;bottom=0;right=0;editable=1;overflow=hidden;whiteSpace=wrap;html=1;" vertex="1" parent="kEmHC3A9kpMNyN0Pkd79-125">
          <mxGeometry width="30" height="30" as="geometry">
            <mxRectangle width="30" height="30" as="alternateBounds" />
          </mxGeometry>
        </mxCell>
        <mxCell id="kEmHC3A9kpMNyN0Pkd79-127" value="Nombre del Departamento" style="shape=partialRectangle;connectable=0;fillColor=none;top=0;left=0;bottom=0;right=0;align=left;spacingLeft=6;overflow=hidden;whiteSpace=wrap;html=1;" vertex="1" parent="kEmHC3A9kpMNyN0Pkd79-125">
          <mxGeometry x="30" width="112" height="30" as="geometry">
            <mxRectangle width="112" height="30" as="alternateBounds" />
          </mxGeometry>
        </mxCell>
        <mxCell id="kEmHC3A9kpMNyN0Pkd79-131" value="" style="endArrow=classic;html=1;rounded=0;entryX=0;entryY=0.5;entryDx=0;entryDy=0;" edge="1" parent="1" target="kEmHC3A9kpMNyN0Pkd79-122">
          <mxGeometry width="50" height="50" relative="1" as="geometry">
            <mxPoint x="711" y="144" as="sourcePoint" />
            <mxPoint x="806" y="171" as="targetPoint" />
            <Array as="points">
              <mxPoint x="684" y="144" />
              <mxPoint x="684" y="252" />
              <mxPoint x="900" y="252" />
              <mxPoint x="900" y="90" />
            </Array>
          </mxGeometry>
        </mxCell>
        <mxCell id="kEmHC3A9kpMNyN0Pkd79-132" value="" style="rounded=0;orthogonalLoop=1;jettySize=auto;html=1;endArrow=halfCircle;endFill=0;endSize=6;strokeWidth=1;sketch=0;" edge="1" parent="1">
          <mxGeometry relative="1" as="geometry">
            <mxPoint x="230" y="324" as="sourcePoint" />
            <mxPoint x="288" y="324" as="targetPoint" />
          </mxGeometry>
        </mxCell>
        <mxCell id="kEmHC3A9kpMNyN0Pkd79-133" value="" style="rounded=0;orthogonalLoop=1;jettySize=auto;html=1;endArrow=oval;endFill=0;sketch=0;sourcePerimeterSpacing=0;targetPerimeterSpacing=0;endSize=10;" edge="1" parent="1">
          <mxGeometry relative="1" as="geometry">
            <mxPoint x="342" y="324" as="sourcePoint" />
            <mxPoint x="288" y="324" as="targetPoint" />
          </mxGeometry>
        </mxCell>
        <mxCell id="kEmHC3A9kpMNyN0Pkd79-134" value="" style="ellipse;whiteSpace=wrap;html=1;align=center;aspect=fixed;fillColor=none;strokeColor=none;resizable=0;perimeter=centerPerimeter;rotatable=0;allowArrows=0;points=[];outlineConnect=1;" vertex="1" parent="1">
          <mxGeometry x="339" y="288" width="10" height="10" as="geometry" />
        </mxCell>
        <mxCell id="kEmHC3A9kpMNyN0Pkd79-136" value="" style="rounded=0;orthogonalLoop=1;jettySize=auto;html=1;endArrow=oval;endFill=0;sketch=0;sourcePerimeterSpacing=0;targetPerimeterSpacing=0;endSize=10;" edge="1" parent="1">
          <mxGeometry relative="1" as="geometry">
            <mxPoint x="594" y="324" as="sourcePoint" />
            <mxPoint x="504" y="324" as="targetPoint" />
          </mxGeometry>
        </mxCell>
        <mxCell id="kEmHC3A9kpMNyN0Pkd79-138" value="" style="rounded=0;orthogonalLoop=1;jettySize=auto;html=1;endArrow=halfCircle;endFill=0;endSize=6;strokeWidth=1;sketch=0;exitX=1;exitY=0.5;exitDx=0;exitDy=0;" edge="1" parent="1" source="kEmHC3A9kpMNyN0Pkd79-3">
          <mxGeometry relative="1" as="geometry">
            <mxPoint x="364" y="293" as="sourcePoint" />
            <mxPoint x="504" y="324" as="targetPoint" />
          </mxGeometry>
        </mxCell>
        <mxCell id="kEmHC3A9kpMNyN0Pkd79-137" value="" style="ellipse;whiteSpace=wrap;html=1;align=center;aspect=fixed;fillColor=none;strokeColor=none;resizable=0;perimeter=centerPerimeter;rotatable=0;allowArrows=0;points=[];outlineConnect=1;" vertex="1" parent="1">
          <mxGeometry x="495" y="387" width="10" height="10" as="geometry" />
        </mxCell>
        <mxCell id="kEmHC3A9kpMNyN0Pkd79-139" value="Centro de control y transmision" style="shape=table;startSize=30;container=1;collapsible=1;childLayout=tableLayout;fixedRows=1;rowLines=0;fontStyle=1;align=center;resizeLast=1;html=1;" vertex="1" parent="1">
          <mxGeometry x="594" y="279" width="187" height="159" as="geometry" />
        </mxCell>
        <mxCell id="kEmHC3A9kpMNyN0Pkd79-140" value="" style="shape=tableRow;horizontal=0;startSize=0;swimlaneHead=0;swimlaneBody=0;fillColor=none;collapsible=0;dropTarget=0;points=[[0,0.5],[1,0.5]];portConstraint=eastwest;top=0;left=0;right=0;bottom=1;" vertex="1" parent="kEmHC3A9kpMNyN0Pkd79-139">
          <mxGeometry y="30" width="187" height="30" as="geometry" />
        </mxCell>
        <mxCell id="kEmHC3A9kpMNyN0Pkd79-141" value="PK" style="shape=partialRectangle;connectable=0;fillColor=none;top=0;left=0;bottom=0;right=0;fontStyle=1;overflow=hidden;whiteSpace=wrap;html=1;" vertex="1" parent="kEmHC3A9kpMNyN0Pkd79-140">
          <mxGeometry width="30" height="30" as="geometry">
            <mxRectangle width="30" height="30" as="alternateBounds" />
          </mxGeometry>
        </mxCell>
        <mxCell id="kEmHC3A9kpMNyN0Pkd79-142" value="Control" style="shape=partialRectangle;connectable=0;fillColor=none;top=0;left=0;bottom=0;right=0;align=left;spacingLeft=6;fontStyle=5;overflow=hidden;whiteSpace=wrap;html=1;" vertex="1" parent="kEmHC3A9kpMNyN0Pkd79-140">
          <mxGeometry x="30" width="157" height="30" as="geometry">
            <mxRectangle width="157" height="30" as="alternateBounds" />
          </mxGeometry>
        </mxCell>
        <mxCell id="kEmHC3A9kpMNyN0Pkd79-143" value="" style="shape=tableRow;horizontal=0;startSize=0;swimlaneHead=0;swimlaneBody=0;fillColor=none;collapsible=0;dropTarget=0;points=[[0,0.5],[1,0.5]];portConstraint=eastwest;top=0;left=0;right=0;bottom=0;" vertex="1" parent="kEmHC3A9kpMNyN0Pkd79-139">
          <mxGeometry y="60" width="187" height="39" as="geometry" />
        </mxCell>
        <mxCell id="kEmHC3A9kpMNyN0Pkd79-144" value="" style="shape=partialRectangle;connectable=0;fillColor=none;top=0;left=0;bottom=0;right=0;editable=1;overflow=hidden;whiteSpace=wrap;html=1;" vertex="1" parent="kEmHC3A9kpMNyN0Pkd79-143">
          <mxGeometry width="30" height="39" as="geometry">
            <mxRectangle width="30" height="39" as="alternateBounds" />
          </mxGeometry>
        </mxCell>
        <mxCell id="kEmHC3A9kpMNyN0Pkd79-145" value="Control de datos meteorologicos" style="shape=partialRectangle;connectable=0;fillColor=none;top=0;left=0;bottom=0;right=0;align=left;spacingLeft=6;overflow=hidden;whiteSpace=wrap;html=1;" vertex="1" parent="kEmHC3A9kpMNyN0Pkd79-143">
          <mxGeometry x="30" width="157" height="39" as="geometry">
            <mxRectangle width="157" height="39" as="alternateBounds" />
          </mxGeometry>
        </mxCell>
        <mxCell id="kEmHC3A9kpMNyN0Pkd79-146" value="" style="shape=tableRow;horizontal=0;startSize=0;swimlaneHead=0;swimlaneBody=0;fillColor=none;collapsible=0;dropTarget=0;points=[[0,0.5],[1,0.5]];portConstraint=eastwest;top=0;left=0;right=0;bottom=0;" vertex="1" parent="kEmHC3A9kpMNyN0Pkd79-139">
          <mxGeometry y="99" width="187" height="30" as="geometry" />
        </mxCell>
        <mxCell id="kEmHC3A9kpMNyN0Pkd79-147" value="" style="shape=partialRectangle;connectable=0;fillColor=none;top=0;left=0;bottom=0;right=0;editable=1;overflow=hidden;whiteSpace=wrap;html=1;" vertex="1" parent="kEmHC3A9kpMNyN0Pkd79-146">
          <mxGeometry width="30" height="30" as="geometry">
            <mxRectangle width="30" height="30" as="alternateBounds" />
          </mxGeometry>
        </mxCell>
        <mxCell id="kEmHC3A9kpMNyN0Pkd79-148" value="Diagnostico de estaciones" style="shape=partialRectangle;connectable=0;fillColor=none;top=0;left=0;bottom=0;right=0;align=left;spacingLeft=6;overflow=hidden;whiteSpace=wrap;html=1;" vertex="1" parent="kEmHC3A9kpMNyN0Pkd79-146">
          <mxGeometry x="30" width="157" height="30" as="geometry">
            <mxRectangle width="157" height="30" as="alternateBounds" />
          </mxGeometry>
        </mxCell>
        <mxCell id="kEmHC3A9kpMNyN0Pkd79-149" value="" style="shape=tableRow;horizontal=0;startSize=0;swimlaneHead=0;swimlaneBody=0;fillColor=none;collapsible=0;dropTarget=0;points=[[0,0.5],[1,0.5]];portConstraint=eastwest;top=0;left=0;right=0;bottom=0;" vertex="1" parent="kEmHC3A9kpMNyN0Pkd79-139">
          <mxGeometry y="129" width="187" height="30" as="geometry" />
        </mxCell>
        <mxCell id="kEmHC3A9kpMNyN0Pkd79-150" value="FK" style="shape=partialRectangle;connectable=0;fillColor=none;top=0;left=0;bottom=0;right=0;editable=1;overflow=hidden;whiteSpace=wrap;html=1;" vertex="1" parent="kEmHC3A9kpMNyN0Pkd79-149">
          <mxGeometry width="30" height="30" as="geometry">
            <mxRectangle width="30" height="30" as="alternateBounds" />
          </mxGeometry>
        </mxCell>
        <mxCell id="kEmHC3A9kpMNyN0Pkd79-151" value="Estaciones de campo" style="shape=partialRectangle;connectable=0;fillColor=none;top=0;left=0;bottom=0;right=0;align=left;spacingLeft=6;overflow=hidden;whiteSpace=wrap;html=1;" vertex="1" parent="kEmHC3A9kpMNyN0Pkd79-149">
          <mxGeometry x="30" width="157" height="30" as="geometry">
            <mxRectangle width="157" height="30" as="alternateBounds" />
          </mxGeometry>
        </mxCell>
        <mxCell id="kEmHC3A9kpMNyN0Pkd79-152" value="" style="endArrow=classic;html=1;rounded=0;exitX=0;exitY=0.5;exitDx=0;exitDy=0;" edge="1" parent="1" source="kEmHC3A9kpMNyN0Pkd79-149">
          <mxGeometry width="50" height="50" relative="1" as="geometry">
            <mxPoint x="819" y="374" as="sourcePoint" />
            <mxPoint x="869" y="324" as="targetPoint" />
            <Array as="points">
              <mxPoint x="567" y="423" />
              <mxPoint x="567" y="468" />
              <mxPoint x="792" y="468" />
              <mxPoint x="792" y="324" />
            </Array>
          </mxGeometry>
        </mxCell>
        <mxCell id="kEmHC3A9kpMNyN0Pkd79-153" value="Estaciones Meteorologicas" style="shape=table;startSize=30;container=1;collapsible=1;childLayout=tableLayout;fixedRows=1;rowLines=0;fontStyle=1;align=center;resizeLast=1;html=1;" vertex="1" parent="1">
          <mxGeometry x="873" y="279" width="187" height="216" as="geometry" />
        </mxCell>
        <mxCell id="kEmHC3A9kpMNyN0Pkd79-154" value="" style="shape=tableRow;horizontal=0;startSize=0;swimlaneHead=0;swimlaneBody=0;fillColor=none;collapsible=0;dropTarget=0;points=[[0,0.5],[1,0.5]];portConstraint=eastwest;top=0;left=0;right=0;bottom=1;" vertex="1" parent="kEmHC3A9kpMNyN0Pkd79-153">
          <mxGeometry y="30" width="187" height="30" as="geometry" />
        </mxCell>
        <mxCell id="kEmHC3A9kpMNyN0Pkd79-155" value="PK" style="shape=partialRectangle;connectable=0;fillColor=none;top=0;left=0;bottom=0;right=0;fontStyle=1;overflow=hidden;whiteSpace=wrap;html=1;" vertex="1" parent="kEmHC3A9kpMNyN0Pkd79-154">
          <mxGeometry width="30" height="30" as="geometry">
            <mxRectangle width="30" height="30" as="alternateBounds" />
          </mxGeometry>
        </mxCell>
        <mxCell id="kEmHC3A9kpMNyN0Pkd79-156" value="Estaciones de campo" style="shape=partialRectangle;connectable=0;fillColor=none;top=0;left=0;bottom=0;right=0;align=left;spacingLeft=6;fontStyle=5;overflow=hidden;whiteSpace=wrap;html=1;" vertex="1" parent="kEmHC3A9kpMNyN0Pkd79-154">
          <mxGeometry x="30" width="157" height="30" as="geometry">
            <mxRectangle width="157" height="30" as="alternateBounds" />
          </mxGeometry>
        </mxCell>
        <mxCell id="kEmHC3A9kpMNyN0Pkd79-157" value="" style="shape=tableRow;horizontal=0;startSize=0;swimlaneHead=0;swimlaneBody=0;fillColor=none;collapsible=0;dropTarget=0;points=[[0,0.5],[1,0.5]];portConstraint=eastwest;top=0;left=0;right=0;bottom=0;" vertex="1" parent="kEmHC3A9kpMNyN0Pkd79-153">
          <mxGeometry y="60" width="187" height="66" as="geometry" />
        </mxCell>
        <mxCell id="kEmHC3A9kpMNyN0Pkd79-158" value="" style="shape=partialRectangle;connectable=0;fillColor=none;top=0;left=0;bottom=0;right=0;editable=1;overflow=hidden;whiteSpace=wrap;html=1;" vertex="1" parent="kEmHC3A9kpMNyN0Pkd79-157">
          <mxGeometry width="30" height="66" as="geometry">
            <mxRectangle width="30" height="66" as="alternateBounds" />
          </mxGeometry>
        </mxCell>
        <mxCell id="kEmHC3A9kpMNyN0Pkd79-159" value="RecopilaciÃ³n de datos como temperatura, humedad, velocidad y direcciÃ³n del viento, etc.&amp;nbsp;" style="shape=partialRectangle;connectable=0;fillColor=none;top=0;left=0;bottom=0;right=0;align=left;spacingLeft=6;overflow=hidden;whiteSpace=wrap;html=1;" vertex="1" parent="kEmHC3A9kpMNyN0Pkd79-157">
          <mxGeometry x="30" width="157" height="66" as="geometry">
            <mxRectangle width="157" height="66" as="alternateBounds" />
          </mxGeometry>
        </mxCell>
        <mxCell id="kEmHC3A9kpMNyN0Pkd79-160" value="" style="shape=tableRow;horizontal=0;startSize=0;swimlaneHead=0;swimlaneBody=0;fillColor=none;collapsible=0;dropTarget=0;points=[[0,0.5],[1,0.5]];portConstraint=eastwest;top=0;left=0;right=0;bottom=0;" vertex="1" parent="kEmHC3A9kpMNyN0Pkd79-153">
          <mxGeometry y="126" width="187" height="30" as="geometry" />
        </mxCell>
        <mxCell id="kEmHC3A9kpMNyN0Pkd79-161" value="" style="shape=partialRectangle;connectable=0;fillColor=none;top=0;left=0;bottom=0;right=0;editable=1;overflow=hidden;whiteSpace=wrap;html=1;" vertex="1" parent="kEmHC3A9kpMNyN0Pkd79-160">
          <mxGeometry width="30" height="30" as="geometry">
            <mxRectangle width="30" height="30" as="alternateBounds" />
          </mxGeometry>
        </mxCell>
        <mxCell id="kEmHC3A9kpMNyN0Pkd79-162" value="Procesamiento e interpretaciÃ³n de los datos" style="shape=partialRectangle;connectable=0;fillColor=none;top=0;left=0;bottom=0;right=0;align=left;spacingLeft=6;overflow=hidden;whiteSpace=wrap;html=1;" vertex="1" parent="kEmHC3A9kpMNyN0Pkd79-160">
          <mxGeometry x="30" width="157" height="30" as="geometry">
            <mxRectangle width="157" height="30" as="alternateBounds" />
          </mxGeometry>
        </mxCell>
        <mxCell id="kEmHC3A9kpMNyN0Pkd79-163" value="" style="shape=tableRow;horizontal=0;startSize=0;swimlaneHead=0;swimlaneBody=0;fillColor=none;collapsible=0;dropTarget=0;points=[[0,0.5],[1,0.5]];portConstraint=eastwest;top=0;left=0;right=0;bottom=0;" vertex="1" parent="kEmHC3A9kpMNyN0Pkd79-153">
          <mxGeometry y="156" width="187" height="30" as="geometry" />
        </mxCell>
        <mxCell id="kEmHC3A9kpMNyN0Pkd79-164" value="FK" style="shape=partialRectangle;connectable=0;fillColor=none;top=0;left=0;bottom=0;right=0;editable=1;overflow=hidden;whiteSpace=wrap;html=1;" vertex="1" parent="kEmHC3A9kpMNyN0Pkd79-163">
          <mxGeometry width="30" height="30" as="geometry">
            <mxRectangle width="30" height="30" as="alternateBounds" />
          </mxGeometry>
        </mxCell>
        <mxCell id="kEmHC3A9kpMNyN0Pkd79-165" value="Sensores" style="shape=partialRectangle;connectable=0;fillColor=none;top=0;left=0;bottom=0;right=0;align=left;spacingLeft=6;overflow=hidden;whiteSpace=wrap;html=1;" vertex="1" parent="kEmHC3A9kpMNyN0Pkd79-163">
          <mxGeometry x="30" width="157" height="30" as="geometry">
            <mxRectangle width="157" height="30" as="alternateBounds" />
          </mxGeometry>
        </mxCell>
        <mxCell id="kEmHC3A9kpMNyN0Pkd79-166" style="shape=tableRow;horizontal=0;startSize=0;swimlaneHead=0;swimlaneBody=0;fillColor=none;collapsible=0;dropTarget=0;points=[[0,0.5],[1,0.5]];portConstraint=eastwest;top=0;left=0;right=0;bottom=0;" vertex="1" parent="kEmHC3A9kpMNyN0Pkd79-153">
          <mxGeometry y="186" width="187" height="30" as="geometry" />
        </mxCell>
        <mxCell id="kEmHC3A9kpMNyN0Pkd79-167" value="FK" style="shape=partialRectangle;connectable=0;fillColor=none;top=0;left=0;bottom=0;right=0;editable=1;overflow=hidden;whiteSpace=wrap;html=1;" vertex="1" parent="kEmHC3A9kpMNyN0Pkd79-166">
          <mxGeometry width="30" height="30" as="geometry">
            <mxRectangle width="30" height="30" as="alternateBounds" />
          </mxGeometry>
        </mxCell>
        <mxCell id="kEmHC3A9kpMNyN0Pkd79-168" value="Fuentes de energia" style="shape=partialRectangle;connectable=0;fillColor=none;top=0;left=0;bottom=0;right=0;align=left;spacingLeft=6;overflow=hidden;whiteSpace=wrap;html=1;" vertex="1" parent="kEmHC3A9kpMNyN0Pkd79-166">
          <mxGeometry x="30" width="157" height="30" as="geometry">
            <mxRectangle width="157" height="30" as="alternateBounds" />
          </mxGeometry>
        </mxCell>
        <mxCell id="kEmHC3A9kpMNyN0Pkd79-170" value="" style="endArrow=classic;html=1;rounded=0;exitX=0;exitY=0.5;exitDx=0;exitDy=0;" edge="1" parent="1" source="kEmHC3A9kpMNyN0Pkd79-163">
          <mxGeometry width="50" height="50" relative="1" as="geometry">
            <mxPoint x="1071" y="338" as="sourcePoint" />
            <mxPoint x="1152" y="315" as="targetPoint" />
            <Array as="points">
              <mxPoint x="846" y="450" />
              <mxPoint x="846" y="522" />
              <mxPoint x="1080" y="522" />
              <mxPoint x="1080" y="315" />
            </Array>
          </mxGeometry>
        </mxCell>
        <mxCell id="kEmHC3A9kpMNyN0Pkd79-171" value="Sensores" style="shape=table;startSize=30;container=1;collapsible=1;childLayout=tableLayout;fixedRows=1;rowLines=0;fontStyle=1;align=center;resizeLast=1;html=1;" vertex="1" parent="1">
          <mxGeometry x="1152" y="270" width="187" height="153" as="geometry" />
        </mxCell>
        <mxCell id="kEmHC3A9kpMNyN0Pkd79-172" value="" style="shape=tableRow;horizontal=0;startSize=0;swimlaneHead=0;swimlaneBody=0;fillColor=none;collapsible=0;dropTarget=0;points=[[0,0.5],[1,0.5]];portConstraint=eastwest;top=0;left=0;right=0;bottom=1;" vertex="1" parent="kEmHC3A9kpMNyN0Pkd79-171">
          <mxGeometry y="30" width="187" height="30" as="geometry" />
        </mxCell>
        <mxCell id="kEmHC3A9kpMNyN0Pkd79-173" value="PK" style="shape=partialRectangle;connectable=0;fillColor=none;top=0;left=0;bottom=0;right=0;fontStyle=1;overflow=hidden;whiteSpace=wrap;html=1;" vertex="1" parent="kEmHC3A9kpMNyN0Pkd79-172">
          <mxGeometry width="30" height="30" as="geometry">
            <mxRectangle width="30" height="30" as="alternateBounds" />
          </mxGeometry>
        </mxCell>
        <mxCell id="kEmHC3A9kpMNyN0Pkd79-174" value="Sensores" style="shape=partialRectangle;connectable=0;fillColor=none;top=0;left=0;bottom=0;right=0;align=left;spacingLeft=6;fontStyle=5;overflow=hidden;whiteSpace=wrap;html=1;" vertex="1" parent="kEmHC3A9kpMNyN0Pkd79-172">
          <mxGeometry x="30" width="157" height="30" as="geometry">
            <mxRectangle width="157" height="30" as="alternateBounds" />
          </mxGeometry>
        </mxCell>
        <mxCell id="kEmHC3A9kpMNyN0Pkd79-175" value="" style="shape=tableRow;horizontal=0;startSize=0;swimlaneHead=0;swimlaneBody=0;fillColor=none;collapsible=0;dropTarget=0;points=[[0,0.5],[1,0.5]];portConstraint=eastwest;top=0;left=0;right=0;bottom=0;" vertex="1" parent="kEmHC3A9kpMNyN0Pkd79-171">
          <mxGeometry y="60" width="187" height="48" as="geometry" />
        </mxCell>
        <mxCell id="kEmHC3A9kpMNyN0Pkd79-176" value="" style="shape=partialRectangle;connectable=0;fillColor=none;top=0;left=0;bottom=0;right=0;editable=1;overflow=hidden;whiteSpace=wrap;html=1;" vertex="1" parent="kEmHC3A9kpMNyN0Pkd79-175">
          <mxGeometry width="30" height="48" as="geometry">
            <mxRectangle width="30" height="48" as="alternateBounds" />
          </mxGeometry>
        </mxCell>
        <mxCell id="kEmHC3A9kpMNyN0Pkd79-177" value="RecopilaciÃ³n de datos mediante instrumentos anÃ¡logos" style="shape=partialRectangle;connectable=0;fillColor=none;top=0;left=0;bottom=0;right=0;align=left;spacingLeft=6;overflow=hidden;whiteSpace=wrap;html=1;" vertex="1" parent="kEmHC3A9kpMNyN0Pkd79-175">
          <mxGeometry x="30" width="157" height="48" as="geometry">
            <mxRectangle width="157" height="48" as="alternateBounds" />
          </mxGeometry>
        </mxCell>
        <mxCell id="kEmHC3A9kpMNyN0Pkd79-178" value="" style="shape=tableRow;horizontal=0;startSize=0;swimlaneHead=0;swimlaneBody=0;fillColor=none;collapsible=0;dropTarget=0;points=[[0,0.5],[1,0.5]];portConstraint=eastwest;top=0;left=0;right=0;bottom=0;" vertex="1" parent="kEmHC3A9kpMNyN0Pkd79-171">
          <mxGeometry y="108" width="187" height="45" as="geometry" />
        </mxCell>
        <mxCell id="kEmHC3A9kpMNyN0Pkd79-179" value="" style="shape=partialRectangle;connectable=0;fillColor=none;top=0;left=0;bottom=0;right=0;editable=1;overflow=hidden;whiteSpace=wrap;html=1;" vertex="1" parent="kEmHC3A9kpMNyN0Pkd79-178">
          <mxGeometry width="30" height="45" as="geometry">
            <mxRectangle width="30" height="45" as="alternateBounds" />
          </mxGeometry>
        </mxCell>
        <mxCell id="kEmHC3A9kpMNyN0Pkd79-180" value="Recopilacion de datos mediante instrumentos digitales" style="shape=partialRectangle;connectable=0;fillColor=none;top=0;left=0;bottom=0;right=0;align=left;spacingLeft=6;overflow=hidden;whiteSpace=wrap;html=1;" vertex="1" parent="kEmHC3A9kpMNyN0Pkd79-178">
          <mxGeometry x="30" width="157" height="45" as="geometry">
            <mxRectangle width="157" height="45" as="alternateBounds" />
          </mxGeometry>
        </mxCell>
        <mxCell id="kEmHC3A9kpMNyN0Pkd79-184" value="" style="endArrow=classic;html=1;rounded=0;exitX=0;exitY=0.5;exitDx=0;exitDy=0;" edge="1" parent="1" source="kEmHC3A9kpMNyN0Pkd79-166">
          <mxGeometry width="50" height="50" relative="1" as="geometry">
            <mxPoint x="828" y="540" as="sourcePoint" />
            <mxPoint x="1152" y="504" as="targetPoint" />
            <Array as="points">
              <mxPoint x="828" y="480" />
              <mxPoint x="828" y="540" />
              <mxPoint x="1116" y="540" />
              <mxPoint x="1116" y="504" />
            </Array>
          </mxGeometry>
        </mxCell>
        <mxCell id="kEmHC3A9kpMNyN0Pkd79-185" value="Energia" style="shape=table;startSize=30;container=1;collapsible=1;childLayout=tableLayout;fixedRows=1;rowLines=0;fontStyle=1;align=center;resizeLast=1;html=1;" vertex="1" parent="1">
          <mxGeometry x="1152" y="459" width="187" height="225" as="geometry" />
        </mxCell>
        <mxCell id="kEmHC3A9kpMNyN0Pkd79-186" value="" style="shape=tableRow;horizontal=0;startSize=0;swimlaneHead=0;swimlaneBody=0;fillColor=none;collapsible=0;dropTarget=0;points=[[0,0.5],[1,0.5]];portConstraint=eastwest;top=0;left=0;right=0;bottom=1;" vertex="1" parent="kEmHC3A9kpMNyN0Pkd79-185">
          <mxGeometry y="30" width="187" height="30" as="geometry" />
        </mxCell>
        <mxCell id="kEmHC3A9kpMNyN0Pkd79-187" value="PK" style="shape=partialRectangle;connectable=0;fillColor=none;top=0;left=0;bottom=0;right=0;fontStyle=1;overflow=hidden;whiteSpace=wrap;html=1;" vertex="1" parent="kEmHC3A9kpMNyN0Pkd79-186">
          <mxGeometry width="30" height="30" as="geometry">
            <mxRectangle width="30" height="30" as="alternateBounds" />
          </mxGeometry>
        </mxCell>
        <mxCell id="kEmHC3A9kpMNyN0Pkd79-188" value="Fuentes de energÃ­a" style="shape=partialRectangle;connectable=0;fillColor=none;top=0;left=0;bottom=0;right=0;align=left;spacingLeft=6;fontStyle=5;overflow=hidden;whiteSpace=wrap;html=1;" vertex="1" parent="kEmHC3A9kpMNyN0Pkd79-186">
          <mxGeometry x="30" width="157" height="30" as="geometry">
            <mxRectangle width="157" height="30" as="alternateBounds" />
          </mxGeometry>
        </mxCell>
        <mxCell id="kEmHC3A9kpMNyN0Pkd79-189" value="" style="shape=tableRow;horizontal=0;startSize=0;swimlaneHead=0;swimlaneBody=0;fillColor=none;collapsible=0;dropTarget=0;points=[[0,0.5],[1,0.5]];portConstraint=eastwest;top=0;left=0;right=0;bottom=0;" vertex="1" parent="kEmHC3A9kpMNyN0Pkd79-185">
          <mxGeometry y="60" width="187" height="48" as="geometry" />
        </mxCell>
        <mxCell id="kEmHC3A9kpMNyN0Pkd79-190" value="" style="shape=partialRectangle;connectable=0;fillColor=none;top=0;left=0;bottom=0;right=0;editable=1;overflow=hidden;whiteSpace=wrap;html=1;" vertex="1" parent="kEmHC3A9kpMNyN0Pkd79-189">
          <mxGeometry width="30" height="48" as="geometry">
            <mxRectangle width="30" height="48" as="alternateBounds" />
          </mxGeometry>
        </mxCell>
        <mxCell id="kEmHC3A9kpMNyN0Pkd79-191" value="Provee de energÃ­a a las estaciones de campo" style="shape=partialRectangle;connectable=0;fillColor=none;top=0;left=0;bottom=0;right=0;align=left;spacingLeft=6;overflow=hidden;whiteSpace=wrap;html=1;" vertex="1" parent="kEmHC3A9kpMNyN0Pkd79-189">
          <mxGeometry x="30" width="157" height="48" as="geometry">
            <mxRectangle width="157" height="48" as="alternateBounds" />
          </mxGeometry>
        </mxCell>
        <mxCell id="kEmHC3A9kpMNyN0Pkd79-192" value="" style="shape=tableRow;horizontal=0;startSize=0;swimlaneHead=0;swimlaneBody=0;fillColor=none;collapsible=0;dropTarget=0;points=[[0,0.5],[1,0.5]];portConstraint=eastwest;top=0;left=0;right=0;bottom=0;" vertex="1" parent="kEmHC3A9kpMNyN0Pkd79-185">
          <mxGeometry y="108" width="187" height="117" as="geometry" />
        </mxCell>
        <mxCell id="kEmHC3A9kpMNyN0Pkd79-193" value="" style="shape=partialRectangle;connectable=0;fillColor=none;top=0;left=0;bottom=0;right=0;editable=1;overflow=hidden;whiteSpace=wrap;html=1;" vertex="1" parent="kEmHC3A9kpMNyN0Pkd79-192">
          <mxGeometry width="30" height="117" as="geometry">
            <mxRectangle width="30" height="117" as="alternateBounds" />
          </mxGeometry>
        </mxCell>
        <mxCell id="kEmHC3A9kpMNyN0Pkd79-194" value="Plantas de energia de paneles solares situadas junto a las estaciones meteorologicas para garantizar su avastecimiento" style="shape=partialRectangle;connectable=0;fillColor=none;top=0;left=0;bottom=0;right=0;align=left;spacingLeft=6;overflow=hidden;whiteSpace=wrap;html=1;" vertex="1" parent="kEmHC3A9kpMNyN0Pkd79-192">
          <mxGeometry x="30" width="157" height="117" as="geometry">
            <mxRectangle width="157" height="117" as="alternateBounds" />
          </mxGeometry>
        </mxCell>
      </root>
    </mxGraphModel>
  </diagram>
</mxfile>
